<svg width="58" height="61" viewBox="0 0 58 61" fill="none" xmlns="http://www.w3.org/2000/svg">
<rect x="1" y="1" width="56" height="59" rx="5" fill="white"/>
<rect x="1" y="1" width="56" height="59" rx="5" stroke="#6CBD98" stroke-width="2"/>
<path d="M13.91 15.005C13.96 15.415 14.075 15.715 14.255 15.905C14.435 16.085 14.73 16.175 15.14 16.175C15.56 16.175 15.85 16.085 16.01 15.905C16.17 15.725 16.28 15.425 16.34 15.005L17.51 6.17C17.54 5.94 17.745 5.825 18.125 5.825C18.515 5.825 18.71 5.925 18.71 6.125L17.51 15.17C17.42 15.9 17.205 16.425 16.865 16.745C16.525 17.065 15.95 17.225 15.14 17.225C14.34 17.225 13.765 17.065 13.415 16.745C13.065 16.415 12.86 15.89 12.8 15.17L12.455 11.48H12.305L11.96 15.17C11.89 15.89 11.68 16.415 11.33 16.745C10.99 17.065 10.415 17.225 9.605 17.225C8.805 17.225 8.235 17.065 7.895 16.745C7.555 16.425 7.34 15.9 7.25 15.17L6.05 6.095C6.05 5.915 6.24 5.825 6.62 5.825C7.01 5.825 7.22 5.94 7.25 6.17L8.42 15.005C8.48 15.425 8.585 15.725 8.735 15.905C8.895 16.085 9.185 16.175 9.605 16.175C10.025 16.175 10.32 16.085 10.49 15.905C10.67 15.715 10.79 15.415 10.85 15.005L11.78 7.535C11.81 7.305 12.01 7.19 12.38 7.19C12.75 7.19 12.95 7.305 12.98 7.535L13.91 15.005ZM28.3606 6.17V16.73C28.3606 16.96 28.1606 17.075 27.7606 17.075C27.3606 17.075 27.1606 16.96 27.1606 16.73V12.065H22.6156V16.73C22.6156 16.96 22.4156 17.075 22.0156 17.075C21.6156 17.075 21.4156 16.96 21.4156 16.73V6.17C21.4156 5.94 21.6156 5.825 22.0156 5.825C22.4156 5.825 22.6156 5.94 22.6156 6.17V11.015H27.1606V6.17C27.1606 5.94 27.3606 5.825 27.7606 5.825C28.1606 5.825 28.3606 5.94 28.3606 6.17ZM38.5999 8.045V16.73C38.5999 16.96 38.3999 17.075 37.9999 17.075C37.5999 17.075 37.3999 16.96 37.3999 16.73V12.665H32.8549V16.73C32.8549 16.96 32.6549 17.075 32.2549 17.075C31.8549 17.075 31.6549 16.96 31.6549 16.73V8.045C31.6549 7.485 31.8199 7.025 32.1499 6.665C32.4799 6.295 32.8999 6.04 33.4099 5.9C33.9199 5.75 34.5199 5.675 35.2099 5.675C37.4699 5.675 38.5999 6.465 38.5999 8.045ZM32.8549 7.895V11.615H37.3999V7.895C37.3999 7.115 36.6399 6.725 35.1199 6.725C33.6099 6.725 32.8549 7.115 32.8549 7.895ZM40.8441 5.9H47.1441C47.3441 5.9 47.4441 6.075 47.4441 6.425C47.4441 6.775 47.3441 6.95 47.1441 6.95H44.5941V16.73C44.5941 16.96 44.3941 17.075 43.9941 17.075C43.5941 17.075 43.3941 16.96 43.3941 16.73V6.95H40.8441C40.6441 6.95 40.5441 6.775 40.5441 6.425C40.5441 6.075 40.6441 5.9 40.8441 5.9ZM5.6 24.9H11.9C12.1 24.9 12.2 25.075 12.2 25.425C12.2 25.775 12.1 25.95 11.9 25.95H9.35V35.73C9.35 35.96 9.15 36.075 8.75 36.075C8.35 36.075 8.15 35.96 8.15 35.73V25.95H5.6C5.4 25.95 5.3 25.775 5.3 25.425C5.3 25.075 5.4 24.9 5.6 24.9ZM20.945 27.045V33.855C20.945 34.685 20.62 35.29 19.97 35.67C19.33 36.04 18.48 36.225 17.42 36.225C15.14 36.225 14 35.435 14 33.855V27.045C14 26.215 14.32 25.615 14.96 25.245C15.61 24.865 16.465 24.675 17.525 24.675C19.805 24.675 20.945 25.465 20.945 27.045ZM15.2 26.895V34.005C15.2 34.785 15.955 35.175 17.465 35.175C18.985 35.175 19.745 34.785 19.745 34.005V26.895C19.745 26.115 18.985 25.725 17.465 25.725C15.955 25.725 15.2 26.115 15.2 26.895ZM7.7 51.13V53.005C7.7 53.785 8.405 54.175 9.815 54.175C11.235 54.175 11.945 53.785 11.945 53.005V51.925C11.945 51.695 12.145 51.58 12.545 51.58C12.945 51.58 13.145 51.695 13.145 51.925V52.855C13.145 53.685 12.845 54.29 12.245 54.67C11.645 55.04 10.84 55.225 9.83 55.225C8.83 55.225 8.025 55.04 7.415 54.67C6.805 54.29 6.5 53.685 6.5 52.855V51.13C6.5 50.1 6.94 49.48 7.82 49.27C7.04 49.03 6.65 48.42 6.65 47.44V46.045C6.65 45.215 6.955 44.615 7.565 44.245C8.175 43.865 8.95 43.675 9.89 43.675C10.84 43.675 11.59 43.865 12.14 44.245C12.69 44.625 12.965 45.225 12.965 46.045V46.27C12.965 46.5 12.765 46.615 12.365 46.615C11.965 46.615 11.765 46.5 11.765 46.27V45.895C11.765 45.115 11.11 44.725 9.8 44.725C8.5 44.725 7.85 45.115 7.85 45.895V47.44C7.85 48.32 8.39 48.76 9.47 48.76H10.595C10.795 48.76 10.895 48.935 10.895 49.285C10.895 49.635 10.795 49.81 10.595 49.81H9.32C8.24 49.81 7.7 50.25 7.7 51.13ZM22.6331 46.045V54.73C22.6331 54.96 22.4331 55.075 22.0331 55.075C21.6331 55.075 21.4331 54.96 21.4331 54.73V50.665H16.8881V54.73C16.8881 54.96 16.6881 55.075 16.2881 55.075C15.8881 55.075 15.6881 54.96 15.6881 54.73V46.045C15.6881 45.485 15.8531 45.025 16.1831 44.665C16.5131 44.295 16.9331 44.04 17.4431 43.9C17.9531 43.75 18.5531 43.675 19.2431 43.675C21.5031 43.675 22.6331 44.465 22.6331 46.045ZM16.8881 45.895V49.615H21.4331V45.895C21.4331 45.115 20.6731 44.725 19.1531 44.725C17.6431 44.725 16.8881 45.115 16.8881 45.895ZM24.8773 43.9H31.1773C31.3773 43.9 31.4773 44.075 31.4773 44.425C31.4773 44.775 31.3773 44.95 31.1773 44.95H28.6273V54.73C28.6273 54.96 28.4273 55.075 28.0273 55.075C27.6273 55.075 27.4273 54.96 27.4273 54.73V44.95H24.8773C24.6773 44.95 24.5773 44.775 24.5773 44.425C24.5773 44.075 24.6773 43.9 24.8773 43.9Z" fill="#6CBD98"/>
</svg>
