<svg width="116" height="115" viewBox="0 0 116 115" fill="none" xmlns="http://www.w3.org/2000/svg">
<rect x="1" y="1" width="114" height="113" rx="5" fill="#B3D6C6" fill-opacity="0.4"/>
<rect x="1" y="1" width="114" height="113" rx="5" stroke="black" stroke-width="2"/>
<path d="M24.008 27.744C24.1147 28.6187 24.36 29.2587 24.744 29.664C25.128 30.048 25.7573 30.24 26.632 30.24C27.528 30.24 28.1467 30.048 28.488 29.664C28.8293 29.28 29.064 28.64 29.192 27.744L31.688 8.896C31.752 8.40533 32.1893 8.16 33 8.16C33.832 8.16 34.248 8.37333 34.248 8.8L31.688 28.096C31.496 29.6533 31.0373 30.7733 30.312 31.456C29.5867 32.1387 28.36 32.48 26.632 32.48C24.9253 32.48 23.6987 32.1387 22.952 31.456C22.2053 30.752 21.768 29.632 21.64 28.096L20.904 20.224H20.584L19.848 28.096C19.6987 29.632 19.2507 30.752 18.504 31.456C17.7787 32.1387 16.552 32.48 14.824 32.48C13.1173 32.48 11.9013 32.1387 11.176 31.456C10.4507 30.7733 9.992 29.6533 9.8 28.096L7.24 8.736C7.24 8.352 7.64533 8.16 8.456 8.16C9.288 8.16 9.736 8.40533 9.8 8.896L12.296 27.744C12.424 28.64 12.648 29.28 12.968 29.664C13.3093 30.048 13.928 30.24 14.824 30.24C15.72 30.24 16.3493 30.048 16.712 29.664C17.096 29.2587 17.352 28.6187 17.48 27.744L19.464 11.808C19.528 11.3173 19.9547 11.072 20.744 11.072C21.5333 11.072 21.96 11.3173 22.024 11.808L24.008 27.744ZM54.836 8.896V31.424C54.836 31.9147 54.4093 32.16 53.556 32.16C52.7027 32.16 52.276 31.9147 52.276 31.424V21.472H42.58V31.424C42.58 31.9147 42.1533 32.16 41.3 32.16C40.4467 32.16 40.02 31.9147 40.02 31.424V8.896C40.02 8.40533 40.4467 8.16 41.3 8.16C42.1533 8.16 42.58 8.40533 42.58 8.896V19.232H52.276V8.896C52.276 8.40533 52.7027 8.16 53.556 8.16C54.4093 8.16 54.836 8.40533 54.836 8.896ZM76.6798 12.896V31.424C76.6798 31.9147 76.2531 32.16 75.3998 32.16C74.5464 32.16 74.1198 31.9147 74.1198 31.424V22.752H64.4238V31.424C64.4238 31.9147 63.9971 32.16 63.1438 32.16C62.2904 32.16 61.8638 31.9147 61.8638 31.424V12.896C61.8638 11.7013 62.2158 10.72 62.9198 9.952C63.6238 9.16267 64.5198 8.61867 65.6078 8.32C66.6958 8 67.9758 7.84 69.4478 7.84C74.2691 7.84 76.6798 9.52533 76.6798 12.896ZM64.4238 12.576V20.512H74.1198V12.576C74.1198 10.912 72.4984 10.08 69.2558 10.08C66.0344 10.08 64.4238 10.912 64.4238 12.576ZM81.4675 8.32H94.9075C95.3342 8.32 95.5475 8.69333 95.5475 9.44C95.5475 10.1867 95.3342 10.56 94.9075 10.56H89.4675V31.424C89.4675 31.9147 89.0408 32.16 88.1875 32.16C87.3342 32.16 86.9075 31.9147 86.9075 31.424V10.56H81.4675C81.0408 10.56 80.8275 10.1867 80.8275 9.44C80.8275 8.69333 81.0408 8.32 81.4675 8.32ZM6.28 45.32H19.72C20.1467 45.32 20.36 45.6933 20.36 46.44C20.36 47.1867 20.1467 47.56 19.72 47.56H14.28V68.424C14.28 68.9147 13.8533 69.16 13 69.16C12.1467 69.16 11.72 68.9147 11.72 68.424V47.56H6.28C5.85333 47.56 5.64 47.1867 5.64 46.44C5.64 45.6933 5.85333 45.32 6.28 45.32ZM39.016 49.896V64.424C39.016 66.1947 38.3227 67.4853 36.936 68.296C35.5707 69.0853 33.7573 69.48 31.496 69.48C26.632 69.48 24.2 67.7947 24.2 64.424V49.896C24.2 48.1253 24.8827 46.8453 26.248 46.056C27.6347 45.2453 29.4587 44.84 31.72 44.84C36.584 44.84 39.016 46.5253 39.016 49.896ZM26.76 49.576V64.744C26.76 66.408 28.3707 67.24 31.592 67.24C34.8347 67.24 36.456 66.408 36.456 64.744V49.576C36.456 47.912 34.8347 47.08 31.592 47.08C28.3707 47.08 26.76 47.912 26.76 49.576ZM10.76 97.744V101.744C10.76 103.408 12.264 104.24 15.272 104.24C18.3013 104.24 19.816 103.408 19.816 101.744V99.44C19.816 98.9493 20.2427 98.704 21.096 98.704C21.9493 98.704 22.376 98.9493 22.376 99.44V101.424C22.376 103.195 21.736 104.485 20.456 105.296C19.176 106.085 17.4587 106.48 15.304 106.48C13.1707 106.48 11.4533 106.085 10.152 105.296C8.85067 104.485 8.2 103.195 8.2 101.424V97.744C8.2 95.5467 9.13867 94.224 11.016 93.776C9.352 93.264 8.52 91.9627 8.52 89.872V86.896C8.52 85.1253 9.17067 83.8453 10.472 83.056C11.7733 82.2453 13.4267 81.84 15.432 81.84C17.4587 81.84 19.0587 82.2453 20.232 83.056C21.4053 83.8667 21.992 85.1467 21.992 86.896V87.376C21.992 87.8667 21.5653 88.112 20.712 88.112C19.8587 88.112 19.432 87.8667 19.432 87.376V86.576C19.432 84.912 18.0347 84.08 15.24 84.08C12.4667 84.08 11.08 84.912 11.08 86.576V89.872C11.08 91.7493 12.232 92.688 14.536 92.688H16.936C17.3627 92.688 17.576 93.0613 17.576 93.808C17.576 94.5547 17.3627 94.928 16.936 94.928H14.216C11.912 94.928 10.76 95.8667 10.76 97.744ZM42.6173 86.896V105.424C42.6173 105.915 42.1906 106.16 41.3373 106.16C40.4839 106.16 40.0573 105.915 40.0573 105.424V96.752H30.3613V105.424C30.3613 105.915 29.9346 106.16 29.0813 106.16C28.2279 106.16 27.8013 105.915 27.8013 105.424V86.896C27.8013 85.7013 28.1533 84.72 28.8573 83.952C29.5613 83.1627 30.4573 82.6187 31.5453 82.32C32.6333 82 33.9133 81.84 35.3853 81.84C40.2066 81.84 42.6173 83.5253 42.6173 86.896ZM30.3613 86.576V94.512H40.0573V86.576C40.0573 84.912 38.4359 84.08 35.1933 84.08C31.9719 84.08 30.3613 84.912 30.3613 86.576ZM47.405 82.32H60.845C61.2717 82.32 61.485 82.6933 61.485 83.44C61.485 84.1867 61.2717 84.56 60.845 84.56H55.405V105.424C55.405 105.915 54.9783 106.16 54.125 106.16C53.2717 106.16 52.845 105.915 52.845 105.424V84.56H47.405C46.9783 84.56 46.765 84.1867 46.765 83.44C46.765 82.6933 46.9783 82.32 47.405 82.32Z" fill="black"/>
</svg>
