<svg width="50" height="50" viewBox="0 0 50 50" fill="none" xmlns="http://www.w3.org/2000/svg">
<path fill-rule="evenodd" clip-rule="evenodd" d="M25 4.16666C13.4938 4.16666 4.16667 13.4937 4.16667 25C4.16667 36.5062 13.4938 45.8333 25 45.8333C36.5063 45.8333 45.8333 36.5062 45.8333 25C45.8333 13.4937 36.5063 4.16666 25 4.16666ZM17.7083 19.7917C17.7083 18.8341 17.8969 17.8859 18.2634 17.0013C18.6298 16.1166 19.1669 15.3128 19.844 14.6357C20.5211 13.9586 21.3249 13.4215 22.2096 13.055C23.0943 12.6886 24.0424 12.5 25 12.5C25.9576 12.5 26.9057 12.6886 27.7904 13.055C28.6751 13.4215 29.4789 13.9586 30.156 14.6357C30.8331 15.3128 31.3702 16.1166 31.7366 17.0013C32.1031 17.8859 32.2917 18.8341 32.2917 19.7917C32.2917 21.7255 31.5234 23.5802 30.156 24.9477C28.7885 26.3151 26.9339 27.0833 25 27.0833C23.0661 27.0833 21.2115 26.3151 19.844 24.9477C18.4766 23.5802 17.7083 21.7255 17.7083 19.7917ZM38.0375 35.3833C36.4775 37.3445 34.4948 38.9281 32.2374 40.0161C29.9799 41.104 27.5059 41.6683 25 41.6667C22.4941 41.6683 20.0201 41.104 17.7626 40.0161C15.5052 38.9281 13.5225 37.3445 11.9625 35.3833C15.3396 32.9604 19.9479 31.25 25 31.25C30.0521 31.25 34.6604 32.9604 38.0375 35.3833Z" fill="#6CBD98"/>
</svg>
