<svg width="25" height="24" viewBox="0 0 25 24" fill="none" xmlns="http://www.w3.org/2000/svg">
<rect width="24" height="24" transform="translate(0.599998)" fill="#6CBD98"/>
<path d="M7.54 4.99999C7.53974 5.53043 7.32877 6.03903 6.95351 6.41391C6.57825 6.7888 6.06943 6.99926 5.539 6.99899C5.00857 6.99873 4.49997 6.78776 4.12508 6.4125C3.7502 6.03724 3.53974 5.52843 3.54 4.99799C3.54027 4.46756 3.75123 3.95896 4.12649 3.58407C4.50175 3.20919 5.01057 2.99873 5.541 2.99899C6.07143 2.99926 6.58004 3.21023 6.95492 3.58549C7.32981 3.96075 7.54027 4.46956 7.54 4.99999ZM7.6 8.47999H3.6V21H7.6V8.47999ZM13.92 8.47999H9.94V21H13.88V14.43C13.88 10.77 18.65 10.43 18.65 14.43V21H22.6V13.07C22.6 6.89999 15.54 7.12999 13.88 10.16L13.92 8.47999Z" fill="white"/>
</svg>
