<svg width="40" height="40" viewBox="0 0 40 40" fill="none" xmlns="http://www.w3.org/2000/svg">
<path d="M25.4531 0C17.4219 0 10.9062 6.51562 10.9062 14.5469C10.9062 17.1641 11.6094 19.6094 12.8125 21.7344L0 34.5469L1.82031 38.1797L5.45312 40L18.2656 27.1875C20.3828 28.3984 22.8359 29.0938 25.4531 29.0938C33.4844 29.0938 40 22.5781 40 14.5469C40 6.51562 33.4844 0 25.4531 0ZM25.4531 24.5469C19.9297 24.5469 15.4531 20.0703 15.4531 14.5469C15.4531 9.02344 19.9297 4.54688 25.4531 4.54688C30.9766 4.54688 35.4531 9.02344 35.4531 14.5469C35.4531 20.0703 30.9766 24.5469 25.4531 24.5469Z" fill="#6CBD98"/>
</svg>
