<svg width="22" height="22" viewBox="0 0 22 22" fill="none" xmlns="http://www.w3.org/2000/svg">
<path fill-rule="evenodd" clip-rule="evenodd" d="M2.2088 2.60044C8.00382 1.35861 13.9962 1.35861 19.7912 2.60044C20.4165 2.73437 20.9769 3.07872 21.3788 3.576C21.7808 4.07328 22.0001 4.6934 22 5.33284V16.6672C22 17.9843 21.0789 19.1239 19.7912 19.3996C13.9962 20.6415 8.00381 20.6415 2.2088 19.3996C1.58354 19.2657 1.02314 18.9214 0.621156 18.4241C0.219167 17.9268 -8.51119e-05 17.3067 2.47849e-08 16.6672V5.33284C2.47849e-08 4.01578 0.921067 2.87618 2.2088 2.60044ZM9.9396 7.45658C9.82917 7.38309 9.70087 7.34093 9.56837 7.33459C9.43588 7.32826 9.30414 7.35797 9.1872 7.42058C9.07026 7.48319 8.97249 7.57635 8.9043 7.69013C8.83612 7.80392 8.80007 7.93406 8.8 8.06671V13.9334C8.80007 14.066 8.83612 14.1962 8.9043 14.31C8.97249 14.4237 9.07026 14.5169 9.1872 14.5795C9.30414 14.6421 9.43588 14.6718 9.56837 14.6655C9.70087 14.6592 9.82917 14.617 9.9396 14.5435L14.3396 11.6102C14.44 11.5432 14.5224 11.4525 14.5793 11.346C14.6363 11.2396 14.6661 11.1208 14.6661 11C14.6661 10.8793 14.6363 10.7605 14.5793 10.654C14.5224 10.5476 14.44 10.4569 14.3396 10.3899L9.9396 7.45658Z" fill="#6CBD98"/>
</svg>
