<svg width="20" height="23" viewBox="0 0 20 23" fill="none" xmlns="http://www.w3.org/2000/svg">
<path d="M15.55 3.525C14.6955 2.54953 14.2246 1.29679 14.225 0H10.3625V15.5C10.3327 16.3388 9.97859 17.1333 9.37471 17.7162C8.77082 18.2991 7.96431 18.6249 7.125 18.625C5.35 18.625 3.875 17.175 3.875 15.375C3.875 13.225 5.95 11.6125 8.0875 12.275V8.325C3.775 7.75 0 11.1 0 15.375C0 19.5375 3.45 22.5 7.1125 22.5C11.0375 22.5 14.225 19.3125 14.225 15.375V7.5125C15.7912 8.63731 17.6717 9.24081 19.6 9.2375V5.375C19.6 5.375 17.25 5.4875 15.55 3.525Z" fill="#6CBD98"/>
</svg>
