<svg width="24" height="24" viewBox="0 0 24 24" fill="none" xmlns="http://www.w3.org/2000/svg">
<path d="M22.2007 5.55452C18.6162 -0.00227268 11.2758 -1.64873 5.59895 1.79854C0.0593087 5.24581 -1.72435 12.7578 1.86012 18.2974L2.15168 18.7433L0.951139 23.2368L5.44459 22.0362L5.89051 22.3278C7.82852 23.374 9.93804 23.9742 12.0304 23.9742C14.2771 23.9742 16.5239 23.374 18.4619 22.1734C24.0015 18.5718 25.648 11.2142 22.2007 5.52021V5.55452ZM19.0622 17.114C18.4619 18.0058 17.7073 18.6061 16.6611 18.7605C16.0608 18.7605 15.3062 19.052 12.322 17.8686C9.78369 16.6681 7.67417 14.7129 6.18207 12.4662C5.29024 11.42 4.82717 10.0651 4.68997 8.71022C4.68997 7.50968 5.13588 6.4635 5.89051 5.70887C6.18207 5.41731 6.49078 5.26296 6.78234 5.26296H7.53696C7.82852 5.26296 8.13723 5.26296 8.29159 5.86323C8.58315 6.61785 9.33777 8.41866 9.33777 8.57302C9.49213 8.72737 9.42352 9.87646 8.7375 10.5282C8.36019 10.9569 8.29159 10.9741 8.44594 11.2828C9.04621 12.1746 9.80084 13.0836 10.5383 13.8382C11.4301 14.5929 12.3391 15.1931 13.3853 15.6391C13.6769 15.7934 13.9856 15.7934 14.1399 15.4847C14.2943 15.1931 15.0318 14.4385 15.3405 14.1298C15.632 13.8382 15.7864 13.8382 16.0951 13.9755L18.4962 15.176C18.7877 15.3303 19.0965 15.4676 19.2508 15.6219C19.4052 16.0678 19.4052 16.6681 19.0965 17.114H19.0622Z" fill="#6CBD98"/>
</svg>
